HIERARCHY
ROOT hip
{
	OFFSET 0.000000 0.000000 0.000000 
	CHANNELS 6 Xposition Yposition Zposition Xrotation Zrotation Yrotation
	JOINT abdomen
	{
		OFFSET 0.000000 3.402643 0.000000 
		CHANNELS 3 Xrotation Zrotation Yrotation
		JOINT chest
		{
			OFFSET 0.000000 8.438565 -0.680529 
			CHANNELS 3 Xrotation Zrotation Yrotation
			JOINT neck
			{
				OFFSET 0.000000 10.207942 -0.272212 
				CHANNELS 3 Xrotation Zrotation Yrotation
				JOINT head
				{
					OFFSET 0.000000 3.130431 0.000000 
					CHANNELS 3 Xrotation Zrotation Yrotation
					End Site
					{
						OFFSET 0.000000 3.130435 0.000000 
					}
				}
			}
			JOINT lCollar
			{
				OFFSET 3.470700 6.669187 -0.816635 
				CHANNELS 3 Yrotation Zrotation Xrotation
				JOINT lShldr
				{
					OFFSET 3.198488 0.000000 0.000000 
					CHANNELS 3 Zrotation Yrotation Xrotation
					JOINT lForeArm
					{
						OFFSET 10.139888 0.000000 0.000000 
						CHANNELS 3 Yrotation Zrotation Xrotation
						JOINT lHand
						{
							OFFSET 8.370511 0.000000 0.000000 
							CHANNELS 3 Zrotation Yrotation Xrotation
							End Site
							{
								OFFSET 4.083176 0.000000 0.000000 
							}
						}
					}
				}
			}
			JOINT rCollar
			{
				OFFSET -3.470700 6.669187 -0.816635 
				CHANNELS 3 Yrotation Zrotation Xrotation
				JOINT rShldr
				{
					OFFSET -3.198488 0.000000 0.000000 
					CHANNELS 3 Zrotation Yrotation Xrotation
					JOINT rForeArm
					{
						OFFSET -10.139888 0.000000 0.000000 
						CHANNELS 3 Yrotation Zrotation Xrotation
						JOINT rHand
						{
							OFFSET -8.370511 0.000000 0.000000 
							CHANNELS 3 Zrotation Yrotation Xrotation
							End Site
							{
								OFFSET -4.083176 0.000000 0.000000 
							}
						}
					}
				}
			}
		}
	}
	JOINT lThigh
	{
		OFFSET 5.308129 -1.633274 1.361059 
		CHANNELS 3 Xrotation Zrotation Yrotation
		JOINT lShin
		{
			OFFSET -2.041588 -20.007561 0.000000 
			CHANNELS 3 Xrotation Zrotation Yrotation
			JOINT lFoot
			{
				OFFSET 0.000000 -19.190928 -1.224953 
				CHANNELS 3 Xrotation Yrotation Zrotation
				End Site
				{
					OFFSET 0.000000 -2.449906 4.627600 
				}
			}
		}
	}
	JOINT rThigh
	{
		OFFSET -5.308129 -1.633274 1.361059 
		CHANNELS 3 Xrotation Zrotation Yrotation
		JOINT rShin
		{
			OFFSET 2.041588 -20.007561 0.000000 
			CHANNELS 3 Xrotation Zrotation Yrotation
			JOINT rFoot
			{
				OFFSET 0.000000 -19.190928 -1.224953 
				CHANNELS 3 Xrotation Yrotation Zrotation
				End Site
				{
					OFFSET 0.000000 -2.449906 4.627600 
				}
			}
		}
	}
}
MOTION
Frames: 15
Frame Time: 0.016667
4.230578 35.157597 120.810593 7.343160 -8.311150 -28.313400 -21.481501 4.460800 5.486730 12.234000 -1.352790 3.313060 -0.406441 0.666112 1.768820 5.426510 5.044310 1.111300 2.000000 -2.000000 0.000000 -75.457199 -7.949690 -167.824005 85.088402 -0.226555 0.136261 0.077103 -0.092039 -167.770996 -2.000000 2.000000 0.000000 72.063103 -20.029900 -163.164993 -96.777802 0.199866 0.116307 -0.054408 0.001751 -137.546997 -53.982777 19.377638 -3.910390 63.638424 1.230195 3.957947 -11.844679 0.192364 1.270876 -6.481484 -1.735796 -9.982691 57.646057 -1.780621 -3.685614 -31.099726 -19.664700 -13.108407 
4.237858 35.295658 121.112793 7.765680 -8.700020 -27.940701 -21.664900 4.635200 5.367510 12.253500 -1.372190 3.286120 -0.514826 0.862760 1.779200 5.358130 5.103170 1.116420 2.000000 -2.000000 0.000000 -75.467697 -9.600580 -168.035004 86.836502 -0.222394 0.136554 0.071177 -0.088386 -170.348999 -2.000000 2.000000 0.000000 71.486702 -20.353600 -162.522003 -97.334396 0.198642 0.116156 -0.054434 0.003364 -138.123001 -54.281464 19.913506 -3.238323 63.678993 1.191865 3.961899 -11.853929 0.243947 1.199017 -5.764255 -0.808682 -9.665691 55.730606 -1.918665 -3.589322 -31.452539 -19.656166 -13.273798 
4.221154 35.437092 121.476761 8.011770 -8.656220 -28.177299 -21.766701 4.719900 5.539690 12.605000 -1.421750 3.382100 -0.648619 1.083750 1.718250 5.260400 5.181670 1.089890 2.000000 -2.000000 0.000000 -75.351303 -11.241600 -168.207993 88.311096 -0.218879 0.136703 -179.925995 -179.908005 8.097850 -2.000000 2.000000 0.000000 71.076401 -20.608500 -162.082993 -97.685997 0.197870 0.116054 -0.054458 0.004348 -138.475006 -54.211086 20.627481 -1.177830 63.836452 1.171458 3.972744 -11.618036 1.139951 1.189466 -4.864033 -0.452761 -8.683977 53.842747 -2.077396 -3.485866 -31.119999 -20.289646 -13.476098 
4.175881 35.533592 121.736259 8.312210 -8.388790 -28.058201 -21.931601 4.671930 5.551200 12.790800 -1.364330 3.379350 -0.835332 1.053530 1.558070 5.191640 5.152660 1.004990 2.000000 -2.000000 0.000000 -75.176498 -12.766100 -168.632004 89.727097 -0.215501 0.136760 -179.925995 -179.906998 7.795120 -2.000000 2.000000 0.000000 70.724602 -20.589899 -161.701996 -97.910599 0.197377 0.115987 -0.054499 0.005687 -138.953003 -54.413712 21.014057 1.099741 63.888401 1.118163 4.006565 -11.114160 2.506733 1.153864 -4.001167 -0.173687 -7.710762 52.050125 -2.270415 -3.378741 -31.005074 -20.452280 -13.473593 
4.123083 35.565273 121.971046 8.705230 -8.303050 -27.927700 -22.156700 4.668360 5.542380 12.937100 -1.422880 3.383630 -0.678806 1.267820 1.557580 5.250830 5.240290 1.012130 2.000000 -2.000000 0.000000 -74.894203 -14.026700 -169.020004 91.084602 -0.212077 0.156266 -179.925995 -179.908005 8.009960 -2.000000 2.000000 0.000000 70.450897 -20.629601 -161.419006 -98.047302 0.197077 0.115945 -0.054526 0.006398 -139.207001 -54.723454 21.446966 2.889050 64.007774 1.072438 4.023102 -10.972778 4.117820 1.153825 -2.939446 0.319924 -6.553467 50.021992 -2.440347 -3.248847 -30.677340 -21.104683 -13.676119 
4.081966 35.557632 122.175499 9.214900 -8.561630 -27.673201 -22.443300 4.745030 5.497050 13.004800 -1.607040 3.377000 -0.595240 1.299960 1.466330 5.241060 5.250100 0.962617 2.000000 -2.000000 0.000000 -74.660698 -15.140700 -169.328995 92.324799 -0.208907 0.156171 0.073325 -0.091556 -171.716995 -2.000000 2.000000 0.000000 70.216599 -20.776400 -161.281998 -98.164497 0.196820 0.115908 -0.054543 0.006808 -139.352997 -55.279381 21.917749 3.402527 64.302269 1.041798 4.031156 -11.333157 4.304587 1.131662 -1.941927 1.138260 -5.453547 48.061230 -2.617810 -3.131765 -30.526995 -21.831078 -13.963552 
4.067138 35.474728 122.363106 9.890900 -9.084030 -27.377899 -22.698601 4.889150 5.297770 13.111500 -1.820470 3.313910 -0.505225 1.199590 1.435280 5.260440 5.191440 0.943611 2.000000 -2.000000 0.000000 -74.466400 -16.245501 -169.845001 93.467400 -0.205990 0.156023 -179.925995 -179.908005 8.107610 -2.000000 2.000000 0.000000 69.816002 -20.776899 -161.037994 -98.320702 0.196477 0.115858 -0.054532 0.006535 -139.255997 -56.173065 22.352879 2.615116 64.910522 1.006060 4.062059 -12.164856 3.234373 1.028167 -1.054779 2.164339 -4.680032 46.022697 -2.755582 -3.001743 -30.457319 -22.613194 -14.351439 
4.071599 35.326778 122.486679 10.494100 -9.720690 -27.114300 -22.885900 5.067700 5.107030 13.110700 -2.004450 3.259800 -0.283158 1.202500 1.491710 5.387870 5.181150 0.974397 2.000000 -2.000000 0.000000 -74.389397 -17.409000 -170.466995 94.463501 -0.203449 0.155847 -179.925995 -179.906998 7.707230 -2.000000 2.000000 0.000000 69.425003 -20.493999 -160.891006 -98.330498 0.196456 0.115855 -0.054500 0.005715 -138.962997 -57.295021 22.741781 1.527524 65.695778 0.933801 4.090621 -12.678559 2.484336 0.944865 -0.377047 3.190610 -4.439233 44.437168 -2.848017 -2.899653 -30.831528 -23.096481 -14.836037 
4.079248 35.190063 122.584412 11.005300 -10.174800 -27.055599 -23.049999 5.225040 4.998970 13.100400 -2.110920 3.235000 -0.244149 1.182980 1.494630 5.407360 5.151780 0.985221 2.000000 -2.000000 0.000000 -74.448997 -18.377100 -171.011993 95.381401 -0.201111 0.155645 -179.925003 -179.906006 7.199410 -2.000000 2.000000 0.000000 69.082901 -20.191401 -160.860992 -98.232803 0.196670 0.115886 -0.054471 0.004813 -138.641006 -58.222874 23.036146 0.805384 66.411346 0.889689 4.109195 -12.950177 2.478773 0.927382 0.004452 3.948034 -4.490007 43.364063 -2.913301 -2.853607 -31.522673 -23.417059 -15.398917 
4.092470 35.071659 122.663040 11.431900 -10.438000 -27.254999 -23.159700 5.370200 5.026150 13.119600 -2.178800 3.262650 -0.206253 1.184390 1.517120 5.426970 5.151700 0.996741 2.000000 -2.000000 0.000000 -74.625603 -19.159599 -171.518005 96.035698 -0.199447 0.155479 -179.925003 -179.906006 7.228710 -2.000000 2.000000 0.000000 68.818901 -19.751699 -160.957993 -97.910599 0.197377 0.115987 -0.054444 0.003829 -138.289001 -58.914555 23.259407 0.117888 67.087814 0.846883 4.129731 -13.514611 2.817577 0.987234 0.140272 4.464447 -4.598188 42.615471 -2.948328 -2.799958 -32.501610 -23.817547 -16.174351 
4.109287 35.003017 122.706863 11.732900 -10.513200 -27.610600 -23.294800 5.521710 5.154290 12.943800 -2.158560 3.344870 -0.059418 1.095830 1.518860 5.495430 5.112350 1.001880 2.000000 -2.000000 0.000000 -74.909401 -19.756100 -171.858002 96.436096 -0.198429 0.155367 -179.925003 -179.906998 7.531450 -2.000000 2.000000 0.000000 68.662498 -19.282301 -161.240005 -97.402802 0.198492 0.116136 -0.054427 0.003036 -138.005997 -59.206661 23.439093 -0.388986 67.410599 0.833403 4.125955 -13.972420 3.058682 1.083986 0.081572 4.747806 -4.331506 42.398430 -2.966215 -2.790343 -33.126812 -23.915709 -16.576838 
4.121835 34.925617 122.725960 11.818900 -10.423900 -27.980101 -23.281900 5.568470 5.251560 12.885500 -2.080840 3.405020 0.054267 0.973069 1.586010 5.573610 5.053440 1.036560 2.000000 -2.000000 0.000000 104.806999 -159.725006 7.684120 96.631401 -0.197933 0.155311 -179.925995 -179.906998 7.726760 -2.000000 2.000000 0.000000 68.574402 -18.783600 -161.541000 -97.051201 0.199265 0.116234 -0.054413 0.002161 -137.692993 -59.379963 23.552820 -0.555188 67.754082 0.805800 4.141562 -14.206418 3.169362 1.150117 -0.135189 4.701389 -3.693100 42.653542 -2.960476 -2.794291 -32.999069 -24.319784 -16.711094 
4.124656 34.849453 122.747307 11.824400 -10.308800 -28.239599 -23.200300 5.592040 5.342850 12.915200 -2.003550 3.442410 0.132272 0.875403 1.591550 5.642050 5.014080 1.041480 2.000000 -2.000000 0.000000 104.484001 -159.285004 7.353070 96.621696 -0.197958 0.155313 -179.925995 -179.906998 7.570510 -2.000000 2.000000 0.000000 68.603798 -18.440800 -161.990005 -96.855904 0.199694 0.116287 -0.054403 0.001149 -137.332001 -59.486774 23.622366 -0.552540 68.088211 0.778038 4.166306 -14.281083 3.096459 1.147068 -0.348910 4.445317 -3.458688 43.047951 -2.940784 -2.829941 -33.051147 -24.185020 -16.679808 
4.119454 34.765984 122.782120 11.924300 -10.324200 -28.233500 -23.142300 5.623750 5.343700 13.032700 -1.946000 3.440420 0.097706 0.684272 1.510730 5.631850 4.926270 0.999101 2.000000 -2.000000 0.000000 104.161003 -158.942993 7.295240 96.484901 -0.198305 0.155353 -179.925003 -179.906006 7.287310 -2.000000 2.000000 0.000000 68.613800 -18.283400 -162.487000 -96.816803 0.199780 0.116297 -0.054401 0.000876 -137.233994 -59.790977 23.625547 -0.713327 68.461411 0.733453 4.177935 -14.348825 3.011802 1.126328 -0.501820 4.256014 -3.917301 43.324844 -2.907434 -2.842278 -33.158867 -23.872458 -16.598772 
4.099985 34.686337 122.828194 12.007000 -10.407200 -27.952999 -23.108700 5.628600 5.216080 13.169700 -1.907870 3.381930 0.320861 0.773502 1.546060 5.730100 4.974630 1.018700 2.000000 -2.000000 0.000000 103.888000 -158.718994 7.344570 96.318901 -0.198727 0.155401 -179.923996 -179.904999 6.799030 -2.000000 2.000000 0.000000 68.633598 -18.165199 -162.906998 -96.807098 0.199802 0.116300 -0.054403 0.001176 -137.341995 -60.162903 23.524796 -0.917472 68.784943 0.716798 4.190446 -14.415061 2.881614 1.092277 -0.418271 4.170738 -4.607906 43.354710 -2.905046 -2.850734 -33.399647 -23.577894 -16.574799 
